<svg width="237" height="210" viewBox="0 0 237 210" fill="none" xmlns="http://www.w3.org/2000/svg">
<g clip-path="url(#clip0_116_5645)">
<path d="M227.401 115.828C225.478 112.855 221.406 109.251 218.041 106.499C215.805 104.673 214.447 101.998 214.246 99.1194C213.779 92.368 211.558 87.2982 204.681 81.9321C197.564 76.3766 189.61 73.9433 179.879 76.2706C167.585 79.2083 163.914 85.6265 140.751 90.0124C117.592 94.3898 38.8103 105.959 0.759636 108.67C2.32099 114.367 13.9389 114.798 18.2627 114.839C20.5519 114.862 32.571 114.648 44.4203 114.609C59.2918 114.56 73.8753 118.731 86.5021 126.607C91.6929 129.838 97.7158 133.537 104.245 137.438C105.812 145.115 108.224 156.464 109.563 162.636L95.1092 154.291L92.1225 159.464L133.169 183.162L136.155 177.989L124.046 170.998C123.061 164.847 121.492 153.165 120.422 145.371C123.754 146.537 127.117 147.431 130.48 148.068C143.389 150.509 156.225 149.086 166.72 143.97C184.963 135.075 190.445 122.451 198.493 117.17L198.498 117.173C198.786 116.98 199.075 116.806 199.369 116.634C208.085 111.63 222.41 114.786 227.103 116.225C227.343 116.295 227.537 116.037 227.406 115.83L227.401 115.828ZM112.069 164.083C111.146 158.339 109.719 147.769 108.664 140.046C111.093 141.42 113.574 142.636 116.081 143.696C117.639 151.368 120.152 163.196 121.531 169.546L112.069 164.083ZM201.75 98.9332C200.126 97.9956 199.57 95.9203 200.502 94.3056C201.434 92.6909 203.509 92.1347 205.133 93.0723C206.757 94.0099 207.316 96.0809 206.381 97.6999C205.446 99.3189 203.374 99.8708 201.75 98.9332Z" fill="#1F2041"/>
<path d="M198.489 117.168C190.441 122.449 184.958 135.072 166.712 143.965C156.217 149.081 143.382 150.499 130.478 148.061L130.474 148.059C152.632 151.995 178.761 131.596 177.766 112.221C182.797 115.154 193.808 119.21 198.492 117.164L198.489 117.168Z" fill="#F15A24"/>
</g>
<defs>
<clipPath id="clip0_116_5645">
<rect width="200" height="127" fill="white" transform="translate(63.5) rotate(30)"/>
</clipPath>
</defs>
</svg>
